<?xml version="1.0" encoding="utf-8"?>
<!-- Generator: Adobe Illustrator 24.3.0, SVG Export Plug-In . SVG Version: 6.00 Build 0)  -->
<svg version="1.1" id="Capa_1" xmlns="http://www.w3.org/2000/svg" xmlns:xlink="http://www.w3.org/1999/xlink" x="0px" y="0px"
	 viewBox="0 0 100 100" style="enable-background:new 0 0 100 100;" xml:space="preserve">
<style type="text/css">
	.st0{fill:#364E61;}
</style>
<g>
	<path class="st0" d="M59.4,43.3c-1.4-0.7-4-0.7-6.2,0.4c-1.9,1-4.1,3.1-4,7.9c0,1.2,0.2,2.4,0.7,3.8l0.9,3.2L49.5,59L42,31.8
		L41.5,32c-0.2,0.1-0.5,0.2-0.9,0.4c-0.7,0.4-1.9,1-3.2,1.8c-2.3,1.5-5.6,4-8,7.6c0,0,0,0,0,0c0,0,0,0,0,0.1h0
		c-4.6-0.3-9.1,0.4-13.6,2.4l-0.2,0.1l-0.1,0.2c-0.5,1.2-0.7,2.9-0.6,4.8c0.1,2.1,0.6,4.4,1.4,6.5c2,5.3,5.9,9.3,10.7,11.3L0.5,74.5
		L1.2,75c6.4,4.5,18.1,11,31.8,11c3,0,6.2-0.3,9.4-1c6.7-1.6,12.8-5.4,16.7-10.4c4.3-5.4,5.7-11.7,4-17.8l-2.5-8.9l3.5-2.3
		L59.4,43.3z M17.2,55.5c-0.8-2.1-1.3-4.2-1.4-6.3c-0.1-1.7,0.1-3.2,0.4-4.3c4.3-1.8,8.4-2.5,12.7-2.3c-1.5,2.9-5.6,12.7-1.3,23.8
		l-0.2-0.1C22.8,64.4,19.2,60.5,17.2,55.5z M62.3,57c1.6,5.8,0.3,11.9-3.8,17.1c-3.8,4.9-9.8,8.6-16.3,10.1
		c-16.9,3.8-31.9-4-39.8-9.4l27.3-7.6l-1-0.4c-5.2-12.1,0.3-22.8,1.2-24.3l0.2-0.2c2.3-3.5,5.5-6,7.8-7.4c1.3-0.8,2.4-1.4,3.2-1.7
		c0.2-0.1,0.3-0.1,0.4-0.2l5.9,21.4L49,60l2.9-0.8l-1.2-4c-0.4-1.3-0.6-2.5-0.6-3.6c-0.1-4.3,1.9-6.3,3.6-7.1c2-1,4.3-1,5.5-0.4
		l3.4,1.6l-2.8,1.8L62.3,57z"/>
	<path class="st0" d="M60.6,37.9c3.5,2.5,9.9,6.1,17.5,6.1c1.7,0,3.4-0.2,5.2-0.6c3.7-0.9,7-3,9.2-5.7c2.3-3,3.1-6.5,2.2-9.8
		L93.4,23l2-1.3l-2.8-1.3c-0.8-0.4-2.3-0.4-3.5,0.2c-1.1,0.6-2.3,1.8-2.2,4.4c0,0.6,0.1,1.3,0.3,2.1l0.5,1.7l-0.5,0.1L83.1,14
		l-0.4,0.2c-0.1,0.1-0.3,0.1-0.5,0.2c-0.4,0.2-1.1,0.5-1.8,1c-1.3,0.8-3.1,2.2-4.4,4.2c-2.5-0.2-4.9,0.3-7.4,1.3l-0.1,0.1L68.4,21
		c-0.3,0.7-0.4,1.6-0.3,2.7c0.1,1.2,0.3,2.4,0.8,3.6c1.1,2.8,3.1,5,5.6,6.1l-14.5,4L60.6,37.9z M69.6,27.1c-0.4-1.1-0.7-2.3-0.8-3.4
		c-0.1-0.9,0-1.7,0.2-2.3c2.2-0.9,4.4-1.3,6.6-1.2c-0.9,1.8-2.8,6.9-0.7,12.6C72.5,31.8,70.6,29.8,69.6,27.1z M76.7,33.6l-0.8-0.3
		c-2.8-6.6,0.2-12.4,0.6-13.1l0.1-0.1c1.2-1.9,3-3.2,4.2-4c0.7-0.4,1.3-0.8,1.7-0.9c0,0,0.1,0,0.1,0l4.1,14.8l1.8-0.5l-0.7-2.3
		c-0.2-0.7-0.3-1.3-0.3-1.9c0-2.3,1-3.3,1.9-3.8c1-0.5,2.3-0.5,2.9-0.2l1.7,0.8l-1.4,0.9L94,28c0.9,3.1,0.1,6.4-2.1,9.2
		c-2.1,2.7-5.3,4.6-8.8,5.5c-9,2.1-17.1-2-21.4-4.9L76.7,33.6z"/>
	<path class="st0" d="M98,63.8l1.5-1l-2.1-1c-0.6-0.3-1.6-0.3-2.5,0.2c-0.6,0.3-1.7,1.2-1.6,3.2c0,0.5,0.1,1,0.3,1.5l0.3,1l-0.1,0
		l-2.9-10.4l-0.4,0.2c-0.1,0-0.2,0.1-0.3,0.2c-0.3,0.1-0.7,0.4-1.3,0.7c-0.9,0.6-2.1,1.5-3,2.9c-1.7-0.1-3.4,0.2-5.2,0.9l-0.1,0.1
		l-0.1,0.1c-0.2,0.5-0.3,1.2-0.2,1.9c0,0.8,0.2,1.7,0.6,2.5c0.7,1.9,2,3.3,3.7,4.2l-10,2.8l0.6,0.4c2.4,1.7,6.9,4.2,12.2,4.2
		c1.2,0,2.4-0.1,3.6-0.4c2.6-0.6,4.9-2.1,6.5-4c1.7-2.1,2.2-4.6,1.5-6.9L98,63.8z M81.4,66.6c-0.3-0.8-0.5-1.6-0.5-2.3
		c0-0.6,0-1.1,0.1-1.5c1.5-0.6,2.9-0.9,4.3-0.8c-0.7,1.4-1.8,4.8-0.5,8.5C83.3,69.7,82.1,68.3,81.4,66.6z M96.8,73.6
		c-1.4,1.8-3.7,3.2-6.1,3.8c-6.1,1.4-11.6-1.3-14.7-3.3l10.5-2.9l-0.8-0.3c-1.9-4.5,0.1-8.4,0.4-9l0.1-0.1c0.9-1.3,2-2.2,2.9-2.8
		c0.5-0.3,0.9-0.5,1.1-0.6l2.9,10.3l1.5-0.4l-0.5-1.7c-0.1-0.5-0.2-0.9-0.2-1.3c0-1.2,0.4-2.1,1.2-2.5c0.7-0.4,1.6-0.3,1.9-0.2
		l1,0.5l-0.9,0.6l1,3.7C98.8,69.4,98.3,71.7,96.8,73.6z"/>
</g>
</svg>
