<?xml version="1.0" encoding="utf-8"?>
<!-- Generator: Adobe Illustrator 24.3.0, SVG Export Plug-In . SVG Version: 6.00 Build 0)  -->
<svg version="1.1" id="Capa_1" xmlns="http://www.w3.org/2000/svg" xmlns:xlink="http://www.w3.org/1999/xlink" x="0px" y="0px"
	 viewBox="0 0 100 100" style="enable-background:new 0 0 100 100;" xml:space="preserve">
<style type="text/css">
	.st0{fill:#364E61;}
	.st1{fill:#8CDAD5;}
	.st2{fill:#FFB990;}
</style>
<g>
	<path class="st0" d="M79.3,84.1c-3.5,0-6.6-0.2-9-0.7c-2.7-0.5-4-1.1-4-2c0-0.9,1.2-1.5,4-1.9c1.6-0.3,3.4-0.5,5.5-0.6
		c0.2,0,0.3,0.1,0.3,0.3c0,0.2-0.1,0.3-0.3,0.3c-2,0.1-3.9,0.3-5.4,0.6c-3.3,0.6-3.5,1.2-3.5,1.3c0,0.2,0.2,0.8,3.5,1.4
		c2.4,0.5,5.4,0.7,8.9,0.7c3.5,0,6.5-0.2,8.9-0.7c3.2-0.6,3.5-1.2,3.5-1.4c0-0.1-0.2-0.7-3.5-1.3c-1.6-0.3-3.4-0.5-5.4-0.6
		c-0.2,0-0.3-0.2-0.3-0.3c0-0.2,0.2-0.3,0.3-0.3c2.1,0.1,3.9,0.3,5.5,0.6c2.7,0.5,4,1.1,4,1.9c0,0.9-1.2,1.5-4,2
		C85.9,83.8,82.8,84.1,79.3,84.1z M79.4,81h-0.2c-0.1,0-0.2-0.1-0.3-0.2c-0.1-0.3-0.2-0.4-0.2-0.4L63.3,59.6
		c-3.4-4.6-4.7-9.7-3.9-15.4c0.3-2,0.8-4,1.7-5.9c0.9-1.8,2-3.5,3.4-5c1.4-1.5,2.9-2.8,4.7-3.8c1.6-1,3.4-1.7,5.2-2.2
		c3.2-0.8,6.5-0.8,10,0c3.8,1,7.1,3,9.9,6c1.6,1.8,2.9,3.8,3.8,6v0c0.9,2.2,1.4,4.4,1.5,6.8c0.1,2.4-0.2,4.7-0.9,6.9
		c-0.7,2.3-1.8,4.5-3.2,6.5L79.9,80.4c0,0-0.1,0.1-0.1,0.2c-0.1,0.1-0.1,0.2-0.2,0.3C79.6,81,79.5,81,79.4,81z M79.2,27.4
		c-1.6,0-3.2,0.2-4.7,0.6c-1.8,0.4-3.5,1.1-5.1,2.1c-1.7,1-3.2,2.2-4.5,3.7c-1.3,1.5-2.4,3.1-3.3,4.9c-0.9,1.8-1.4,3.7-1.7,5.7
		c-0.7,5.5,0.5,10.5,3.8,14.9L79.2,80c0,0.1,0.1,0.1,0.1,0.2c0-0.1,0.1-0.1,0.1-0.2l15.5-20.8c1.4-1.9,2.5-4,3.1-6.3
		c0.7-2.2,0.9-4.4,0.8-6.7c-0.1-2.3-0.6-4.5-1.4-6.6c-0.9-2.2-2.1-4.1-3.7-5.8c-2.7-2.9-5.9-4.9-9.6-5.8
		C82.5,27.6,80.8,27.4,79.2,27.4z M79.1,60.9c-1.8,0-3.5-0.4-5.1-1.1c-1.6-0.7-3-1.7-4.3-3c-1.2-1.3-2.2-2.7-2.8-4.4
		c-0.7-1.7-1.1-3.5-1.1-5.3c0-1.9,0.4-3.7,1.1-5.4c0.7-1.6,1.7-3.1,2.9-4.4c1.3-1.3,2.8-2.3,4.4-2.9c1.7-0.7,3.5-1,5.4-1
		c1.8,0,3.5,0.4,5.2,1.2c1.6,0.7,3,1.7,4.2,2.9c1.2,1.3,2.2,2.7,2.8,4.4c0.7,1.7,1,3.4,1,5.3c0,1.9-0.4,3.7-1.1,5.4
		c-0.7,1.6-1.7,3.1-2.9,4.3c-1.3,1.2-2.7,2.2-4.3,2.9C82.8,60.5,81,60.9,79.1,60.9z M79.3,34.1c-1.7,0-3.3,0.3-4.8,1
		c-1.6,0.6-3,1.6-4.2,2.8c-1.2,1.2-2.1,2.6-2.8,4.2c-0.7,1.6-1.1,3.4-1.1,5.1c0,1.7,0.3,3.4,1,5c0.6,1.6,1.6,3,2.7,4.2
		c1.2,1.2,2.6,2.2,4.1,2.8c3.2,1.4,6.9,1.3,10.1,0c1.5-0.7,2.9-1.6,4.1-2.8c1.2-1.2,2.1-2.6,2.8-4.1c0.7-1.6,1-3.4,1-5.1
		c0-1.7-0.3-3.4-1-5c-0.6-1.6-1.6-2.9-2.7-4.2c-1.1-1.2-2.5-2.1-4-2.8c-1.6-0.7-3.2-1.1-4.9-1.1C79.5,34.1,79.4,34.1,79.3,34.1
		L79.3,34.1z"/>
	<path class="st0" d="M79.3,84.1c-3.5,0-6.6-0.2-9-0.7c-2.7-0.5-4-1.1-4-2c0-0.9,1.2-1.5,4-1.9c1.6-0.3,3.4-0.5,5.5-0.6
		c0.2,0,0.3,0.1,0.3,0.3c0,0.2-0.1,0.3-0.3,0.3c-2,0.1-3.9,0.3-5.4,0.6c-3.3,0.6-3.5,1.2-3.5,1.3c0,0.2,0.2,0.8,3.5,1.4
		c2.4,0.5,5.4,0.7,8.9,0.7c3.5,0,6.5-0.2,8.9-0.7c3.2-0.6,3.5-1.2,3.5-1.4c0-0.1-0.2-0.7-3.5-1.3c-1.6-0.3-3.4-0.5-5.4-0.6
		c-0.2,0-0.3-0.2-0.3-0.3c0-0.2,0.2-0.3,0.3-0.3c2.1,0.1,3.9,0.3,5.5,0.6c2.7,0.5,4,1.1,4,1.9c0,0.9-1.2,1.5-4,2
		C85.9,83.8,82.8,84.1,79.3,84.1z M79.4,81h-0.2c-0.1,0-0.2-0.1-0.3-0.2c-0.1-0.3-0.2-0.4-0.2-0.4L63.3,59.6
		c-3.4-4.6-4.7-9.7-3.9-15.4c0.3-2,0.8-4,1.7-5.9c0.9-1.8,2-3.5,3.4-5c1.4-1.5,2.9-2.8,4.7-3.8c1.6-1,3.4-1.7,5.2-2.2
		c3.2-0.8,6.5-0.8,10,0c3.8,1,7.1,3,9.9,6c1.6,1.8,2.9,3.8,3.8,6v0c0.9,2.2,1.4,4.4,1.5,6.8c0.1,2.4-0.2,4.7-0.9,6.9
		c-0.7,2.3-1.8,4.5-3.2,6.5L79.9,80.4c0,0-0.1,0.1-0.1,0.2c-0.1,0.1-0.1,0.2-0.2,0.3C79.6,81,79.5,81,79.4,81z M79.2,27.4
		c-1.6,0-3.2,0.2-4.7,0.6c-1.8,0.4-3.5,1.1-5.1,2.1c-1.7,1-3.2,2.2-4.5,3.7c-1.3,1.5-2.4,3.1-3.3,4.9c-0.9,1.8-1.4,3.7-1.7,5.7
		c-0.7,5.5,0.5,10.5,3.8,14.9L79.2,80c0,0.1,0.1,0.1,0.1,0.2c0-0.1,0.1-0.1,0.1-0.2l15.5-20.8c1.4-1.9,2.5-4,3.1-6.3
		c0.7-2.2,0.9-4.4,0.8-6.7c-0.1-2.3-0.6-4.5-1.4-6.6c-0.9-2.2-2.1-4.1-3.7-5.8c-2.7-2.9-5.9-4.9-9.6-5.8
		C82.5,27.6,80.8,27.4,79.2,27.4z M79.1,60.9c-1.8,0-3.5-0.4-5.1-1.1c-1.6-0.7-3-1.7-4.3-3c-1.2-1.3-2.2-2.7-2.8-4.4
		c-0.7-1.7-1.1-3.5-1.1-5.3c0-1.9,0.4-3.7,1.1-5.4c0.7-1.6,1.7-3.1,2.9-4.4c1.3-1.3,2.8-2.3,4.4-2.9c1.7-0.7,3.5-1,5.4-1
		c1.8,0,3.5,0.4,5.2,1.2c1.6,0.7,3,1.7,4.2,2.9c1.2,1.3,2.2,2.7,2.8,4.4c0.7,1.7,1,3.4,1,5.3c0,1.9-0.4,3.7-1.1,5.4
		c-0.7,1.6-1.7,3.1-2.9,4.3c-1.3,1.2-2.7,2.2-4.3,2.9C82.8,60.5,81,60.9,79.1,60.9z M79.3,34.1c-1.7,0-3.3,0.3-4.8,1
		c-1.6,0.6-3,1.6-4.2,2.8c-1.2,1.2-2.1,2.6-2.8,4.2c-0.7,1.6-1.1,3.4-1.1,5.1c0,1.7,0.3,3.4,1,5c0.6,1.6,1.6,3,2.7,4.2
		c1.2,1.2,2.6,2.2,4.1,2.8c3.2,1.4,6.9,1.3,10.1,0c1.5-0.7,2.9-1.6,4.1-2.8c1.2-1.2,2.1-2.6,2.8-4.1c0.7-1.6,1-3.4,1-5.1
		c0-1.7-0.3-3.4-1-5c-0.6-1.6-1.6-2.9-2.7-4.2c-1.1-1.2-2.5-2.1-4-2.8c-1.6-0.7-3.2-1.1-4.9-1.1C79.5,34.1,79.4,34.1,79.3,34.1
		L79.3,34.1z"/>
	<path class="st1" d="M79.4,38.7c-0.9,0-1.8,0.3-2.5,1c0,0,0,0,0,0l-7.3,6.8c0,0,0,0,0,0c-0.2,0.1-0.2,0.4,0,0.5
		c0.1,0.2,0.4,0.2,0.5,0l0,0l1.5-1.4v6.9c0,0.7,0.3,1.4,0.7,1.8c0.5,0.5,1.1,0.8,1.8,0.8h0h10.2c0.7,0,1.3-0.3,1.8-0.8
		c0.5-0.5,0.7-1.1,0.7-1.8v-7l1.5,1.4v0c0.2,0.1,0.4,0.1,0.5,0c0.1-0.1,0.1-0.2,0.1-0.3v0c0-0.1,0-0.2-0.1-0.3v0l-7.2-6.8
		c0,0,0,0,0,0C81.2,39,80.3,38.7,79.4,38.7z M79.4,38.7C79.4,38.7,79.4,38.7,79.4,38.7l0,0.2L79.4,38.7
		C79.4,38.7,79.4,38.7,79.4,38.7z M86.2,44.9v7.7c0,0.5-0.2,0.9-0.5,1.3v0c-0.3,0.3-0.8,0.5-1.3,0.5h-2.8v-4.4
		c0-0.9-0.4-1.6-1.2-2.1v0c-0.7-0.4-1.6-0.4-2.4,0c-0.7,0.4-1.2,1.2-1.2,2.1v4.4h-2.8c-0.5,0-0.9-0.2-1.3-0.5l0,0
		c-0.3-0.3-0.5-0.8-0.5-1.3v-7.7l5-4.7l0,0c0.5-0.5,1.2-0.8,1.9-0.8c0.7,0,1.4,0.3,1.9,0.8l0,0L86.2,44.9z M77.7,54.4v-4.4
		c0-0.6,0.3-1.1,0.8-1.4c0.5-0.3,1.1-0.3,1.6,0c0.5,0.3,0.8,0.8,0.8,1.4v4.4H77.7z"/>
	<g>
		<path class="st2" d="M38.6,62.7c-0.2,0-5.3,0.5-5.3,0.5l1.1,4.1l5.3-0.5L38.6,62.7z"/>
		<path class="st0" d="M62.2,81.1L41,14.8c0-0.1-0.2-0.3-0.3-0.2l-3.1,0.2c-0.5-1-1.5-1.8-2.5-1.8c-0.1,0-0.1,0-0.2,0
			c-0.6,0-1.3,0.3-1.8,0.8c-0.4,0.4-0.6,0.8-0.6,1.3l-1,0.1c-0.5-1.3-1.7-2.1-3-2.1c0,0,0,0,0,0c-0.7,0-1.5,0.3-2,0.9
			c-0.4,0.4-0.6,0.9-0.6,1.5l-2.2,0.1c-0.6-1.1-1.7-1.9-2.8-2c0,0-0.1,0-0.1,0c-0.7,0-1.3,0.3-1.9,0.8c-0.4,0.4-0.7,0.9-0.7,1.5
			l-0.6,0c-0.1-0.5-0.3-0.9-0.6-1.3c-0.5-0.6-1.1-0.9-1.9-0.9c0,0-0.1,0-0.1,0c-1.5,0-2.8,1.1-2.9,2.5c0,0,0,0,0,0l-1.2,0.1
			C10.3,14.9,9.4,14,8,13.8c-0.1,0-0.1,0-0.2,0c-0.7,0-1.4,0.3-1.9,0.8c-0.5,0.5-0.7,1.1-0.7,1.7l-1.5,0.1c-0.2,0-0.3,0.2-0.3,0.4
			c0,0.1,0,0.2,0.1,0.2c-0.1,0.1-0.1,0.1-0.1,0.2L0.5,79.7c0,0.1,0,0.2,0.1,0.3C0.7,80,0.8,80.1,0.9,80l6.5-1l14,8.1
			c0.1,0,0.1,0.1,0.2,0.1c0.1,0,0.2,0,0.3-0.1L62,81.5c0.1,0,0.2-0.1,0.2-0.2C62.2,81.3,62.3,81.2,62.2,81.1z M34,13.7
			c0.6-0.3,1.3-0.2,1.9,0.2c0.4,0.2,0.6,0.5,0.8,0.9l-3.7,0.2C33.2,14.4,33.5,14,34,13.7z M27.4,13.9c0.6-0.4,1.4-0.4,2.1,0
			c0.6,0.3,1,0.7,1.2,1.2l-4.2,0.2C26.6,14.7,26.9,14.2,27.4,13.9z M19.8,14.3c0.6-0.3,1.4-0.2,2.1,0.2c0.4,0.2,0.7,0.6,1,1
			l-4.1,0.2C18.8,15.1,19.2,14.6,19.8,14.3z M12.6,16c0.1-0.6,0.5-1.1,1-1.5c0.3-0.2,0.5-0.2,0.8-0.3c0.2,0,0.6,0,0.8,0
			c0.6,0.1,1.1,0.5,1.4,1.1c0.1,0.2,0.1,0.3,0.2,0.5L12.6,16C12.6,16,12.6,16,12.6,16z M7,14.6c0.7-0.3,1.5-0.2,2.2,0.3
			c0.4,0.3,0.7,0.7,0.9,1.1l-4.2,0.2C5.9,15.6,6.4,14.9,7,14.6z M7.3,78.3l-6.1,1L4,19.5l14.7,57L7.8,78.2
			C7.6,78.2,7.4,78.2,7.3,78.3z M8.7,78.8l10.1-1.6l2.2,8.7L8.7,78.8z M21.9,86.3L4.1,17.1c0,0,0,0,0-0.1l6.3-0.3
			c0.2,1-0.1,2.1-0.6,3c-0.1,0.2,0,0.4,0.1,0.4c0,0,0.3,0.1,0.4-0.1c0.4-0.7,0.8-1.8,0.7-3c0-0.1,0-0.3-0.1-0.4l6-0.3
			c0,0.3,0,0.6,0,0.9c0,0.8-0.2,1.5-0.4,2.2c0,0.1,0,0.2,0.1,0.3c0.1,0.1,0.2,0.1,0.4,0.1c0.1,0,0.2-0.1,0.2-0.2
			c0.2-0.9,0.5-1.9,0.4-2.9c0-0.1,0-0.2,0-0.3l5.7-0.3c0.3,0.8,0.4,1.8,0.4,2.9c0,0.1,0,0.2,0.1,0.2c0.1,0.1,0.3,0.1,0.4,0
			c0.1,0,0.2-0.1,0.2-0.3c0.1-1.2,0-2.1-0.3-2.9c0,0,0-0.1,0-0.1l2.2-0.1c0,0,0,0,0,0s0,0,0,0l4.8-0.2c0.2,0.8,0.1,1.7-0.1,2.4
			c-0.1,0.3,0.1,0.3,0.2,0.4c0.1,0,0.4,0,0.4-0.2c0.3-0.9,0.3-1.8,0.1-2.6l1.1-0.1c0,0,0,0,0,0c0,0,0,0,0,0l4.3-0.2
			c0.3,1,0.2,2.2,0,2.9c0,0.2,0,0.3,0.1,0.3c0.1,0.1,0.2,0.1,0.4,0.1c0.1,0,0.1-0.1,0.2-0.2c0.2-1.1,0.3-2,0.1-2.9
			c0-0.1-0.1-0.2-0.1-0.3l2.6-0.1l21.1,65.7L21.9,86.3z"/>
		<path class="st0" d="M47.9,57.9c0-0.1,0.1-0.1,0-0.2c0-0.1-0.1-0.2-0.2-0.3l0,0l-5.2,0.4l-1.3-3.7L36,54.5c0,0,0,0,0,0l-15.7,1.1
			l6,21.7l27.3-3.1L47.9,57.9z M47.9,74.2l-1.2-3.7l4.8-0.5l1.3,3.7L47.9,74.2z M42.7,74.8l-1.2-3.7l4.6-0.5l1.2,3.7L42.7,74.8z
			 M37.2,75.4l-1.1-3.7l4.8-0.5l1.2,3.7L37.2,75.4z M31.8,76l-1-3.8l4.8-0.5l1.1,3.7L31.8,76z M24.5,68.5l4.5-0.4l1,3.6l-4.5,0.5
			L24.5,68.5z M23.3,64.4l4.5-0.4l1,3.5L24.3,68L23.3,64.4z M22.1,60l4.5-0.4l1,3.7l-4.5,0.4L22.1,60z M30.6,55.5l1,3.2l-4.5,0.4
			l-0.9-3.3L30.6,55.5z M35.7,55.1l1,3.2l-4.5,0.4l-1-3.2L35.7,55.1z M40.8,54.8l1,3.1l-4.5,0.4l-1-3.1L40.8,54.8z M48.5,61.5
			l-4.7,0.4l-1.2-3.5l4.7-0.4L48.5,61.5z M49.9,65.4l-4.8,0.5L44,62.5l4.7-0.4c0,0,0,0,0,0L49.9,65.4z M51.3,69.4l-4.8,0.5l-1.1-3.4
			l4.8-0.5L51.3,69.4z M33.6,63.4l4.6-0.4l1.1,3.5l-4.7,0.5L33.6,63.4z M34.1,67l-4.7,0.5l-1-3.5l4.6-0.4L34.1,67z M38.7,62.4
			l-1.1-3.6l4.5-0.4l1.2,3.5L38.7,62.4z M43.4,62.5l1.1,3.4L40,66.4L38.9,63L43.4,62.5z M38.1,62.4l-4.6,0.4l-1.1-3.6l4.6-0.4
			L38.1,62.4z M39.6,67.1l1.1,3.5l-4.7,0.5l-1.1-3.6L39.6,67.1z M40.2,67l4.6-0.5l1.1,3.5l-4.6,0.5L40.2,67z M31.8,59.3l1.1,3.6
			l-4.6,0.4l-1-3.7L31.8,59.3z M29.6,68l4.7-0.5l1.1,3.6l-4.8,0.5L29.6,68z M25.6,55.8l0.9,3.3L22,59.5L21,56.1L25.6,55.8z
			 M25.6,72.8l4.5-0.5l1,3.8l-4.5,0.5L25.6,72.8z"/>
		<path class="st1" d="M27.3,23.5c-1.4,0.2-2.7,0.6-4,1.3c-2,1.2-3.6,3.2-4.5,5.6c-0.9,2.4-1.1,5.2-0.6,7.9c0.1,0.3,0.3,0.6,0.6,0.8
			c0.1,0.1,0.3,0.1,0.4,0.1c0.1,0,0.3-0.1,0.4-0.2c0.2-0.2,0.3-0.5,0.3-0.9c-0.5-2.4-0.2-4.8,0.6-6.9c0.8-2.1,2.3-3.8,4.1-4.8
			c1-0.6,2.1-0.9,3.2-1c0.9-0.1,1.9-0.1,2.9,0.1c2.1,0.4,4.2,1.6,5.8,3.4l-2.4,0.3c-0.2,0-0.4,0.1-0.5,0.3c-0.1,0.2-0.2,0.4-0.1,0.7
			v0c0,0.2,0.2,0.5,0.4,0.6c0.2,0.2,0.4,0.2,0.6,0.2l4-0.5c0,0,0,0,0.1,0v0c0,0,0.1,0,0.1,0c0.1,0,0.1,0,0.1-0.1c0,0,0,0,0.1,0
			c0,0,0-0.1,0.1-0.1c0,0,0.1-0.1,0.1-0.1c0-0.1,0.1-0.1,0.1-0.2c0-0.1,0.1-0.2,0-0.4c0,0,0,0,0-0.1l-0.7-5c0-0.3-0.1-0.5-0.3-0.7
			c-0.2-0.2-0.4-0.3-0.6-0.3c0,0,0,0-0.1,0c-0.2,0-0.4,0.1-0.5,0.3c-0.1,0.2-0.2,0.4-0.2,0.7l0.3,2.5c-1.9-1.9-4.3-3.1-6.7-3.5
			C29.2,23.4,28.3,23.4,27.3,23.5z"/>
		<path class="st1" d="M40.5,34.8c-0.2,0-0.4,0.1-0.5,0.3c-0.1,0.2-0.2,0.4-0.1,0.7c0.4,2.4,0.2,4.8-0.6,6.9
			c-0.8,2.1-2.3,3.8-4.1,4.8c-1,0.6-2.1,0.9-3.2,1c-0.9,0.1-1.9,0.1-2.9-0.1C27,48,25,46.9,23.3,45.1l2.4-0.3c0.3,0,0.5-0.2,0.6-0.6
			c0.1-0.3,0-0.7-0.2-0.9c-0.2-0.3-0.5-0.4-0.8-0.4l-4,0.5c0,0,0,0-0.1,0c0,0-0.1,0-0.1,0c-0.1,0-0.1,0-0.1,0.1c0,0,0,0-0.1,0
			c0,0,0,0.1-0.1,0.1v0c0,0-0.1,0.1-0.1,0.1c0,0.1-0.1,0.1-0.1,0.2c0,0.1-0.1,0.2,0,0.4c0,0,0,0,0,0.1l0.7,5c0,0.3,0.1,0.5,0.3,0.7
			c0.2,0.2,0.4,0.3,0.6,0.3l0.1,0c0.2,0,0.4-0.1,0.5-0.3c0.1-0.2,0.2-0.4,0.1-0.7l-0.3-2.5c1.9,1.9,4.3,3.1,6.7,3.5
			c1,0.2,1.9,0.2,2.9,0.1c1.4-0.2,2.7-0.6,4-1.3c2-1.2,3.6-3.2,4.5-5.6c0.9-2.4,1.1-5.2,0.6-7.9c0-0.2-0.2-0.5-0.4-0.6
			C41,34.9,40.7,34.8,40.5,34.8z"/>
	</g>
</g>
</svg>
