<?xml version="1.0" encoding="utf-8"?>
<!-- Generator: Adobe Illustrator 24.3.0, SVG Export Plug-In . SVG Version: 6.00 Build 0)  -->
<svg version="1.1" id="Capa_1" xmlns="http://www.w3.org/2000/svg" xmlns:xlink="http://www.w3.org/1999/xlink" x="0px" y="0px"
	 viewBox="0 0 100 100" style="enable-background:new 0 0 100 100;" xml:space="preserve">
<style type="text/css">
	.st0{fill:#364E61;}
	.st1{fill:none;}
	.st2{fill:#8CDAD5;}
</style>
<g>
	<path class="st0" d="M99.3,16.5L64.7,3.1c-0.1,0-0.2,0-0.3,0c-0.1,0-0.2,0.1-0.2,0.2l-1.3,3.4c-0.1,0-0.2,0.1-0.3,0.1
		c-0.3,0.2-0.6,0.4-0.7,0.8L61,9.8c-0.2,0.5-0.2,1,0,1.4c0,0.1,0.1,0.1,0.1,0.2l-2.8,7.3l0,0.1c0,0,0,0,0,0
		c-1.7,4.5,1.3,12.6,8.3,17.5c1.4,1,2.9,1.8,4.4,2.4c1.4,0.5,2.9,0.9,4.5,1.2c0.1,0,0.3,0,0.4,0.1c0.9,0.1,1.8,0.2,2.7,0.2
		c7.3,0,13.5-3.7,15-7.6c0,0,0,0,0,0l2.7-7.2c0.5-0.1,0.9-0.4,1.1-0.9l0.8-2.1c0.2-0.5,0.2-1.1-0.1-1.6l1.4-3.6
		C99.5,16.8,99.5,16.6,99.3,16.5z M76.4,39L76.4,39c0-0.2,0-0.2,0-0.3c0-0.1,0.1-0.3,0.1-0.4l0-0.1c0-0.1,0-0.1,0-0.2
		c0-0.1,0.1-0.3,0.1-0.5l0-0.1c0,0,0-0.1,0-0.1c0.1-0.2,0.1-0.4,0.2-0.7c0.1-0.3,0.2-0.5,0.3-0.8c0,0,0-0.1,0.1-0.1l0-0.1
		c0.1-0.2,0.2-0.4,0.3-0.6c0,0,0-0.1,0.1-0.1l0.1-0.1c0.1-0.2,0.2-0.4,0.4-0.6l0.1-0.1c0.2-0.2,0.3-0.4,0.5-0.6l0-0.1
		c2.2-2.6,5.7-3.9,9.1-3.4c0.7,0.1,1.5,0.3,2.2,0.6c0.9,0.4,1.8,0.9,2.7,1.5l0.1,0.1c-1.8,4-8.7,7.6-16.5,6.8
		C76.4,39.1,76.4,39.1,76.4,39z M90.3,30c-1-0.4-2.1-0.6-3.3-0.7c0,0,0,0-0.1,0c-0.2,0-0.5,0-0.7,0l-0.2,0c-0.2,0-0.4,0-0.6,0
		c-0.1,0-0.3,0-0.4,0c0,0-0.1,0-0.1,0l-0.1,0c-2.5,0.4-4.9,1.7-6.6,3.6l-0.1,0.1c-0.1,0.1-0.2,0.2-0.3,0.3c-0.1,0.2-0.2,0.3-0.4,0.5
		c0,0.1-0.1,0.1-0.1,0.2l0,0c-0.1,0.1-0.2,0.3-0.3,0.5L77,34.9c-0.1,0.2-0.2,0.4-0.3,0.7l-0.1,0.2c-0.1,0.3-0.2,0.5-0.3,0.7
		c-0.1,0.2-0.2,0.5-0.2,0.7c0,0.1,0,0.1,0,0.2l0,0.1c0,0.1-0.1,0.3-0.1,0.4c0,0.1,0,0.1,0,0.2l0,0.1c0,0.1-0.1,0.3-0.1,0.4
		c0,0.1,0,0.2,0,0.2l0,0.2c0,0,0,0,0,0.1c-1.5-0.2-3-0.6-4.3-1.1c-1.4-0.5-2.7-1.2-3.9-2.1c0,0,0,0,0,0l0.1-0.2
		c0-0.1,0.1-0.1,0.1-0.2c0.1-0.1,0.2-0.3,0.2-0.4l0.1-0.1c0-0.1,0.1-0.1,0.1-0.2c0.1-0.1,0.1-0.3,0.2-0.4l0.1-0.1c0,0,0-0.1,0.1-0.1
		c0.1-0.2,0.2-0.5,0.3-0.7c0.1-0.2,0.2-0.5,0.3-0.8l0.1-0.2c0.1-0.2,0.1-0.5,0.2-0.7l0-0.2c0-0.2,0.1-0.4,0.1-0.5l0-0.1
		c0-0.1,0-0.2,0-0.2c0-0.2,0-0.4,0.1-0.6c0-0.1,0-0.3,0-0.4l0-0.2c0-2.6-0.9-5.1-2.5-7.1l-0.1-0.1c-0.1-0.1-0.2-0.2-0.3-0.3
		c-0.1-0.2-0.3-0.3-0.4-0.4c0,0-0.1-0.1-0.1-0.1l0,0c-0.2-0.1-0.3-0.3-0.5-0.4l-0.1,0c-0.9-0.7-1.8-1.3-2.9-1.7
		c-1-0.4-2.1-0.6-3.2-0.7l2.5-6.6c0.1,0.1,0.2,0.1,0.4,0.2l6.6,2.6c0.1,0.1,0.3,0.1,0.4,0.1c0.8,0.1,1.7-0.4,2-1.2l0.6-1.7
		c0.2-0.5,0.2-1,0-1.4c-0.2-0.5-0.6-0.8-1-1l-7-2.7L64.8,4l33.9,13.1L97.5,20c-0.1-0.1-0.2-0.1-0.4-0.2l-6.6-2.6
		c-0.4-0.2-0.9-0.2-1.4,0c-0.5,0.2-0.8,0.6-1,1L87.5,20c-0.2,0.5-0.2,1,0,1.4c0.2,0.5,0.6,0.8,1,1l7,2.7l-2.5,6.5
		C92.3,31,91.3,30.4,90.3,30z M71,10.8c0.1,0.3,0.1,0.6,0,0.9l-0.6,1.7c-0.1,0.3-0.3,0.5-0.6,0.6c-0.3,0.1-0.6,0.1-0.8,0l-6.6-2.6
		c-0.3-0.1-0.5-0.3-0.6-0.6c-0.1-0.3-0.1-0.6,0-0.8l0.8-2.1c0.1-0.2,0.2-0.3,0.4-0.4c0.2-0.1,0.3-0.1,0.5,0l7,2.7
		C70.7,10.4,70.9,10.6,71,10.8z M59.1,19.3L59.1,19.3c1.1,0.1,2.1,0.3,3,0.6c1,0.4,1.9,0.9,2.8,1.6c0.2,0.1,0.3,0.3,0.5,0.4l0,0
		c0,0,0.1,0.1,0.1,0.1c0.1,0.1,0.3,0.3,0.4,0.4c0.1,0.1,0.2,0.2,0.3,0.3l0.1,0.1c1.5,1.9,2.4,4.2,2.3,6.6l0,0.2c0,0.1,0,0.3,0,0.4
		c0,0.2,0,0.4,0,0.6c0,0.1,0,0.1,0,0.2l0,0.1c0,0.2-0.1,0.3-0.1,0.5l0,0.1c0,0,0,0.1,0,0.1c0,0.2-0.1,0.4-0.2,0.7l-0.1,0.2
		c-0.1,0.3-0.2,0.5-0.2,0.7c-0.1,0.2-0.2,0.4-0.3,0.6c0,0,0,0.1-0.1,0.1l-0.1,0.1c-0.1,0.1-0.1,0.3-0.2,0.4c0,0.1-0.1,0.1-0.1,0.2
		l-0.1,0.1c-0.1,0.1-0.1,0.2-0.2,0.3c0,0-0.1,0.1-0.1,0.1l-0.1,0.1c0,0-0.1,0.1-0.1,0.1c-6.3-4.6-9.1-12-7.8-16.2L59.1,19.3z
		 M88.3,21.1c-0.1-0.3-0.1-0.6,0-0.9l0.6-1.7c0.1-0.3,0.3-0.5,0.6-0.6c0.1-0.1,0.3-0.1,0.4-0.1c0.1,0,0.3,0,0.4,0.1l6.6,2.6
		c0.6,0.2,0.8,0.9,0.6,1.4L96.7,24c-0.1,0.2-0.2,0.3-0.4,0.4c-0.2,0.1-0.3,0.1-0.5,0l-7-2.7C88.6,21.6,88.4,21.4,88.3,21.1z
		 M93.5,32.3C93.5,32.3,93.5,32.3,93.5,32.3L93.5,32.3L93.5,32.3z"/>
	<rect x="22.3" y="40.9" class="st1" width="58.9" height="55.9"/>
	<g>
		<path class="st0" d="M80.1,62.3c-0.9-1.1-2.3-1.8-3.8-1.8h-4.9v0.8h4.9c1.2,0,2.3,0.5,3.1,1.5c0.8,1,1.1,2.2,0.9,3.4
			c-0.2,0.9-0.6,2.7-1,4.9H24.6l-1.3-4.8c-0.3-1.2-0.1-2.4,0.7-3.5c0.8-1,2-1.6,3.2-1.6h5.4v-0.8h-5.4c-1.5,0-2.9,0.7-3.9,1.9
			c-1,1.3-1.3,2.8-0.9,4.3l6.5,23.9h0c0.1,0.4,1.7,6.4,8.1,6.4h30.6c0.1,0,6.5-0.2,8-6.1c0.9-3.5,3.4-15,5.4-24.5
			C81.4,64.9,81.1,63.4,80.1,62.3z M76.3,84.9c-0.5,2.4-1,4.5-1.4,5.7c-1.4,5.3-7.2,5.4-7.2,5.4H37.1c-5.2,0-6.9-4.4-7.3-5.7
			c0,0,0-0.1,0-0.1l-1.4-5.3H76.3z M28.1,84l-3.3-12.1h54.3c-0.8,3.6-1.8,8.3-2.6,12.1H28.1z"/>
		<rect x="38" y="60.4" class="st0" width="28.1" height="0.8"/>
		<path class="st0" d="M36.1,58.5l0.2,0c0.1,0,0.3-0.1,0.4-0.2l7.8-16.8c0-0.1,0.1-0.2,0-0.3c0-0.1-0.1-0.2-0.2-0.3
			c-0.2-0.1-0.5,0-0.6,0.2l-7.8,16.8c0,0.1-0.1,0.2,0,0.3C35.9,58.4,36,58.5,36.1,58.5z"/>
		<path class="st0" d="M67.8,58.3L67.8,58.3c0.1,0.1,0.2,0.2,0.4,0.2h0.2l0,0c0.1,0,0.2-0.1,0.2-0.3c0-0.1,0-0.2,0-0.3l-7.8-16.8
			c-0.1-0.2-0.4-0.3-0.6-0.2c-0.1,0-0.2,0.1-0.2,0.3c0,0.1,0,0.2,0,0.3L67.8,58.3z"/>
	</g>
	<g>
		<path class="st2" d="M68.8,63.9c-1.7,0-3.1-1.4-3.1-3.1c0-1.7,1.4-3.1,3.1-3.1s3.1,1.4,3.1,3.1C71.9,62.6,70.5,63.9,68.8,63.9z
			 M68.8,58.4c-1.3,0-2.4,1.1-2.4,2.4c0,1.3,1,2.4,2.4,2.4c1.3,0,2.4-1.1,2.4-2.4C71.2,59.6,70.2,58.4,68.8,58.4z"/>
	</g>
	<path class="st2" d="M35.3,63.9c-1.7,0-3.1-1.4-3.1-3.1c0-1.7,1.4-3.1,3.1-3.1c1.7,0,3.1,1.4,3.1,3.1
		C38.4,62.6,37.1,63.9,35.3,63.9z M35.3,58.4c-1.3,0-2.4,1.1-2.4,2.4c0,1.3,1.1,2.4,2.4,2.4s2.4-1.1,2.4-2.4
		C37.8,59.6,36.6,58.4,35.3,58.4z"/>
	<path class="st0" d="M19.6,28.9c-3.8,0.3-5.9-0.5-6.8-1.7c-0.5-0.7-0.7-1.5-0.6-2.2c0.1-0.7,0.5-1.4,1-1.8c0.6-0.5,1.5-0.8,2.3-0.5
		c0.1-0.9,0.6-1.6,1.3-2c0.6-0.3,1.4-0.4,2.1-0.3c0.7,0.2,1.4,0.6,1.8,1.4c0.7,1.3,0.8,3.6-0.9,7C19.8,28.8,19.7,28.9,19.6,28.9z
		 M18.8,20.9c-0.6-0.1-1.2,0-1.7,0.2c-0.6,0.3-1.1,1-1,1.9c0,0.2-0.1,0.3-0.3,0.3c-0.1,0-0.1,0-0.2,0c-0.8-0.4-1.6-0.2-2.1,0.2
		c-0.4,0.4-0.7,0.9-0.8,1.5c-0.1,0.6,0,1.2,0.5,1.7c0.8,1,2.7,1.8,6.1,1.5c1.5-3.1,1.5-5.1,0.9-6.3C19.9,21.4,19.4,21.1,18.8,20.9z"
		/>
	<path class="st0" d="M34,38.4l-2.7-3.9c-0.1-0.2-0.3-0.2-0.5-0.1l-0.1,0l0-0.1L18.6,10l-2.1-3.1c-0.1-0.1-0.1-0.1-0.2-0.2
		c0,0,0,0-0.1,0c-0.1,0-0.1,0-0.2,0.1L0.7,17.2c-0.2,0.1-0.2,0.4-0.1,0.5l2.1,3.1l18.2,20.3l-0.1,0.1c-0.1,0.1-0.2,0.3-0.1,0.5
		l2.7,3.9c0.7,1,2.1,1.3,3.1,0.6l6.9-4.7C34.5,40.8,34.7,39.4,34,38.4z M1.4,17.6L1.4,17.6L16,7.6l1.7,2.5l-0.1,0L3.1,20.1L1.4,17.6
		z M21.5,40.6L3.6,20.7l0.1-0.1l14.5-9.9l0,0.1l12,23.9L21.5,40.6L21.5,40.6z M21.6,41.5l9.3-6.3l1.2,1.7l-9.3,6.3L21.6,41.5z
		 M33,40.9l-6.9,4.7c-0.2,0.2-0.5,0.3-0.8,0.3c-0.1,0-0.2,0-0.3,0c-0.4-0.1-0.7-0.3-1-0.6l-0.8-1.2l9.3-6.3l0.8,1.2
		C33.8,39.5,33.7,40.4,33,40.9z"/>
</g>
</svg>
